<svg width="512" height="512" viewBox="0 0 512 512" fill="none" xmlns="http://www.w3.org/2000/svg">
<path d="M317.375 202.955C362.56 128.592 317.375 53.0452 255.266 0C128.749 108.396 190.857 202.955 190.857 202.955C62.0396 142.991 -9.27024 297.513 98.8448 364.396C113.32 319.541 126.28 302.582 172.455 311.351C236.864 336.721 179.356 435.892 112.647 417.441C128.749 461.261 154.052 470.486 211.56 449.73C215.498 475.659 224.565 489.348 255.266 512C283.587 483.312 290.827 470.121 294.372 449.73C341.884 471.912 379.483 470.486 397.886 417.441C354.754 426.635 294.372 387.459 308.173 336.721C333.477 292.901 380.364 293.864 411.688 364.396C529.004 274.45 432.391 152.216 317.375 202.955Z" fill="#9EB83B"/>
<path d="M237.788 372.258L226.265 310.179C237.788 307.244 248.13 304.015 257.29 300.493C266.449 296.677 274.279 292.715 280.78 288.606C287.575 284.203 293.189 279.506 297.621 274.517C302.053 269.527 305.304 264.244 307.372 258.667C309.736 252.796 310.918 246.632 310.918 240.175C310.918 231.663 308.554 224.031 303.826 217.281C299.394 210.53 293.189 205.246 285.212 201.431C277.234 197.615 268.222 195.707 258.176 195.707C246.357 195.707 234.834 199.816 223.606 208.035C212.673 215.96 203.218 227.26 195.241 241.936L162 214.199C174.705 194.826 189.774 179.857 207.207 169.29C224.935 158.43 243.402 153 262.608 153C281.223 153 297.917 156.816 312.69 164.447C327.464 172.079 339.135 182.499 347.704 195.707C356.568 208.915 361 223.738 361 240.175C361 249.861 358.932 259.4 354.795 268.793C350.954 277.892 345.34 286.551 337.953 294.769C330.566 302.988 321.85 310.326 311.804 316.783C302.053 323.241 291.269 328.524 279.45 332.633L271.915 372.258H237.788ZM222.276 436.979C222.276 427.293 225.083 419.368 230.697 413.204C236.311 407.04 243.698 403.958 252.857 403.958C262.608 403.958 270.143 406.894 275.461 412.764C280.78 418.341 283.439 426.413 283.439 436.979C283.439 446.665 280.632 454.59 275.018 460.754C269.404 466.918 262.017 470 252.857 470C243.107 470 235.572 467.212 230.254 461.635C224.935 455.764 222.276 447.546 222.276 436.979Z" fill="#47A8A5"/>
<path d="M283.438 436.979C283.438 426.413 280.779 418.341 275.461 412.764C270.142 406.893 262.608 403.958 252.857 403.958C243.698 403.958 236.311 407.04 230.697 413.204L230.179 413.787C224.91 419.865 222.276 427.596 222.276 436.979L222.284 437.963C222.445 448.057 225.102 455.948 230.254 461.635C235.572 467.212 243.107 470 252.857 470C262.017 470 269.404 466.918 275.018 460.754C280.456 454.783 283.261 447.159 283.431 437.882L283.438 436.979ZM361 240.175C361 223.738 356.568 208.915 347.704 195.707C339.403 182.911 328.19 172.733 314.066 165.171L312.69 164.447C298.379 157.054 282.264 153.242 264.348 153.011L262.608 153C243.403 153 224.935 158.43 207.207 169.29C189.774 179.857 174.705 194.826 162 214.198L195.24 241.937C202.969 227.719 212.084 216.669 222.585 208.787L223.605 208.035C234.833 199.817 246.357 195.707 258.176 195.707L259.114 195.713C268.784 195.828 277.483 197.734 285.212 201.431C293.189 205.246 299.394 210.53 303.826 217.28C308.554 224.031 310.918 231.663 310.918 240.175L310.903 241.383C310.765 247.402 309.588 253.164 307.372 258.667L306.971 259.709C304.893 264.903 301.776 269.839 297.621 274.517C293.189 279.506 287.575 284.203 280.779 288.605C274.279 292.715 266.449 296.677 257.289 300.493C248.13 304.015 237.788 307.244 226.265 310.179L237.788 372.259H271.915L279.45 332.634C291.269 328.525 302.053 323.241 311.804 316.783C321.536 310.528 330.02 303.446 337.257 295.537L337.953 294.77C345.34 286.551 350.954 277.892 354.795 268.793C358.802 259.694 360.869 250.457 360.994 241.083L361 240.175ZM289.438 436.979C289.438 447.902 286.235 457.348 279.454 464.794C272.584 472.337 263.52 476 252.857 476C241.928 476 232.646 472.836 225.912 465.775L225.859 465.72L225.808 465.663C219.195 458.364 216.276 448.529 216.276 436.979C216.276 426.057 219.48 416.61 226.261 409.164C233.131 401.621 242.195 397.958 252.857 397.958C263.824 397.958 273.099 401.294 279.803 408.623L280.423 409.292C286.708 416.288 289.438 425.812 289.438 436.979ZM367 240.175C367 250.743 364.738 261.103 360.286 271.211C356.158 280.961 350.174 290.149 342.416 298.78C334.661 307.409 325.548 315.072 315.116 321.785C305.837 327.93 295.693 333.038 284.704 337.119L276.882 378.259H232.8L219.341 305.751L224.784 304.365C236.094 301.484 246.181 298.331 255.062 294.92C263.952 291.213 271.434 287.413 277.559 283.543C283.975 279.382 289.138 275.033 293.136 270.532C297.133 266.031 299.966 261.379 301.746 256.58L301.775 256.503L301.807 256.426C303.878 251.282 304.918 245.88 304.918 240.175C304.918 232.851 302.908 226.43 298.911 220.723L298.86 220.648L298.811 220.573C295.035 214.823 289.71 210.234 282.623 206.844C275.557 203.464 267.448 201.707 258.176 201.707C247.846 201.707 237.537 205.273 227.149 212.876L227.139 212.885L227.127 212.893C217.07 220.183 208.161 230.73 200.512 244.802L197.017 251.232L154.05 215.38L156.982 210.908C170.111 190.89 185.801 175.249 204.097 164.159C222.68 152.78 242.214 147 262.608 147C282.065 147 299.722 150.995 315.444 159.116C331.077 167.191 343.547 178.29 352.713 192.405C362.245 206.626 367 222.606 367 240.175Z" fill="white"/>
</svg>
