<svg width="512" height="512" viewBox="0 0 512 512" fill="none" xmlns="http://www.w3.org/2000/svg">
<g clip-path="url(#clip0_12_15)">
<path d="M13 13C200.061 -3.23079 306.46 -3.34365 499 13C515.113 203.698 515.421 310.126 499 499C306.479 515.518 200.049 515.59 13 499C-3.6849 308.287 -3.47328 201.888 13 13Z" fill="#9EB83B"/>
<path d="M311.525 208.946C352.073 142.281 311.525 74.5542 255.79 27C142.257 124.176 197.991 208.946 197.991 208.946C82.3936 155.189 18.4019 293.716 115.422 353.676C128.411 313.463 140.041 298.26 181.477 306.122C239.276 328.865 187.67 417.77 127.807 401.23C142.257 440.513 164.963 448.784 216.57 430.176C220.103 453.421 228.24 465.693 255.79 486C281.205 460.281 287.702 448.456 290.883 430.176C333.519 450.061 367.259 448.784 383.773 401.23C345.068 409.472 290.883 374.351 303.268 328.865C325.975 289.581 368.05 290.444 396.159 353.676C501.435 273.041 414.737 163.459 311.525 208.946Z" fill="#47A8A5"/>
<path d="M259.685 22.4355C287.987 46.5837 312.841 76.1776 325.362 108.647C336.276 136.947 337.772 167.385 324.153 197.818C372.241 182.953 415.908 199.355 437.001 230.663C448.632 247.927 453.163 269.487 447.694 292.06C442.237 314.587 426.951 337.65 399.808 358.439L393.767 363.065L390.676 356.113C376.924 325.178 360.554 311.382 346.566 308.722C333.282 306.195 319.427 313.323 308.862 331.185C303.897 350.666 312.738 368.243 328.104 380.506C343.802 393.032 365.234 399.043 382.523 395.361L392.933 393.145L389.441 403.198C380.76 428.198 366.973 442.424 348.517 446.829C332.554 450.639 314.358 446.743 295.211 438.662C293.49 445.375 290.96 451.65 286.785 458.44C281.219 467.494 272.851 477.273 260.059 490.218L256.409 493.91L252.23 490.83C238.297 480.56 228.738 471.946 222.248 462.615C216.966 455.021 213.893 447.206 211.925 438.132C189.094 445.696 170.942 447.974 156.354 443.104C139.875 437.602 129.656 423.637 122.176 403.301L118.143 392.334L129.405 395.446C155.911 402.77 181.309 386.836 193.558 365.428C199.626 354.82 201.996 343.591 200.021 334.13C198.138 325.117 192.171 316.94 179.803 311.914C160.064 308.247 149.14 310.409 141.553 316.538C133.401 323.123 127.667 335.286 121.131 355.52L118.778 362.804L112.268 358.779C61.1505 327.188 51.8513 274.166 71.6455 235.91C81.5071 216.851 98.5574 201.576 120.918 194.714C139.615 188.976 161.676 189.222 185.924 197.59C185.756 197.148 185.588 196.697 185.42 196.237C181.773 186.235 178.181 171.886 178.316 154.367C178.59 119.07 193.98 72.0062 251.889 22.4414L255.784 19.1074L259.685 22.4355ZM255.795 34.9473C203.432 81.2492 190.553 123.825 190.315 154.46C190.193 170.281 193.438 183.198 196.693 192.127C198.32 196.589 199.946 200.043 201.144 202.349C201.742 203.5 202.232 204.363 202.561 204.92C202.725 205.198 202.848 205.4 202.925 205.522C202.963 205.583 202.989 205.625 203.003 205.646C203.004 205.648 203.004 205.648 203.005 205.649L214.601 223.287L195.461 214.387C167.671 201.464 143.531 200.327 124.438 206.186C105.321 212.052 90.7622 225.077 82.3037 241.425C66.2689 272.415 72.0352 315.784 112.215 344.354C117.932 327.964 124.19 315.137 134.012 307.203C145.775 297.701 161.25 296.177 182.596 300.227L183.149 300.332L183.674 300.538C199.85 306.903 208.966 318.266 211.767 331.677C214.5 344.765 211.064 358.993 203.974 371.387C191.525 393.145 166.347 411.501 137.608 409.063C143.722 421.645 150.948 428.647 160.154 431.721C172.039 435.689 188.933 433.762 214.534 424.531L221.404 422.055L222.502 429.274C224.179 440.309 226.862 448.232 232.1 455.764C236.88 462.637 244.003 469.497 255.178 478.039C265.64 467.21 272.217 459.224 276.562 452.156C281.284 444.477 283.483 437.704 284.972 429.147L286.315 421.425L293.419 424.738C314.401 434.524 331.933 438.45 345.731 435.156C357 432.467 366.911 424.647 374.443 408.388C355.735 409.085 335.7 401.921 320.619 389.886C302.508 375.433 290.478 352.998 297.479 327.288L297.684 326.537L298.073 325.862C310.166 304.941 328.519 293.073 348.809 296.933C367.088 300.41 384.481 316.298 398.352 344.239C420.07 326.081 431.732 306.981 436.031 289.234C440.69 270.003 436.834 251.892 427.049 237.367C407.491 208.337 363.298 192.686 313.944 214.437L296.481 222.133L306.398 205.828C325.585 174.284 325.62 142.665 314.166 112.965C303.168 84.4461 281.525 57.652 255.795 34.9473Z" fill="white"/>
</g>
<defs>
<clipPath id="clip0_12_15">
<rect width="512" height="512" fill="white"/>
</clipPath>
</defs>
</svg>
