<svg width="512" height="512" viewBox="0 0 512 512" fill="none" xmlns="http://www.w3.org/2000/svg">
<g clip-path="url(#clip0_12_15)">
<circle cx="256" cy="256" r="256" fill="#222222"/>
<path d="M297.587 220.342C328.321 169.653 297.587 118.158 255.341 82C169.285 155.887 211.531 220.342 211.531 220.342C123.91 179.468 75.4057 284.797 148.945 330.387C158.79 299.812 167.606 288.252 199.013 294.23C242.824 311.522 203.707 379.122 158.332 366.545C169.285 396.414 186.496 402.703 225.613 388.554C228.291 406.228 234.459 415.56 255.341 431C274.605 411.445 279.529 402.454 281.94 388.554C314.258 403.674 339.832 402.703 352.35 366.545C323.012 372.812 281.94 346.108 291.328 311.522C308.539 281.653 340.432 282.309 361.737 330.387C441.535 269.077 375.819 185.757 297.587 220.342Z" fill="#9EB83B"/>
</g>
<defs>
<clipPath id="clip0_12_15">
<rect width="512" height="512" fill="white"/>
</clipPath>
</defs>
</svg>
